<svg xmlns="http://www.w3.org/2000/svg" xmlns:xlink="http://www.w3.org/1999/xlink" viewBox="0 0 195 195">
    <defs>
        <style>
            .cls-1{fill:url(#linear-gradient);}.cls-2{fill:#65aab0;}.cls-3{fill:#65b085;}.cls-4{fill:#b7587f;}.cls-5{fill:url(#linear-gradient-2);}
        </style>
        <linearGradient id="linear-gradient" x1="97.5" x2="97.5" y2="195" gradientUnits="userSpaceOnUse">
            <stop offset="0" stop-color="#60569b"/>
            <stop offset="1" stop-color="#4e438d"/>
        </linearGradient>
        <linearGradient id="linear-gradient-2" x1="90.15" y1="88.57" x2="90.15" y2="151.01"
                        gradientUnits="userSpaceOnUse">
            <stop offset="0" stop-color="#c0a8af"/>
            <stop offset="0.97" stop-color="#98787d"/>
            <stop offset="1" stop-color="#97777c"/>
        </linearGradient>
    </defs>

            <circle class="cls-1" cx="97.5" cy="97.5" r="97.5"/>
            <path class="cls-2"
                  d="M183,81.12c-2-13.66-7.28-39.15-25.41-41.07-2.68-.28-5,2.13-5.36,4.49-1.91-1.25-3.86-2.44-5.83-3.6-6.28-3.68-12.53-7.48-19-10.92-9.14-4.88-25.42-12.87-34.67-4.09-3.63,3.44-5,8.75-2.33,13.07,2.57,4.09,7.73,6.11,12.26,7.54a93.5,93.5,0,0,0,15,3.07c5.45.76,8.38.94,14.29,2.48,9.38,2.45,19.52,6.52,25.27,14.35a55.62,55.62,0,0,1,8,16.33,8.09,8.09,0,0,0-4.5,1.81c-4.79,3.87-2.71,8.94.44,12.88,3,3.72,7.42,7.22,8.51,11.91,1.46,6.29-.73,11.49-5.91,15.47-3.84,3,.31,9.81,4.94,8,8.39-3.19,12.3-10.91,12.47-19a26.37,26.37,0,0,0,1.79-5.41C185.07,99.5,184.34,90.17,183,81.12Z"/>
            <path class="cls-3"
                  d="M54.86,157.22c-2.5,3.9-2.38,9-.43,13.13a10.83,10.83,0,0,0,4.35,4.92c2.47,1.37,6.42,1.48,7.91-1.35a3.27,3.27,0,0,0,0-3.3c-1.66-2.51-4.11-1.78-5.31-4.39a19.09,19.09,0,0,1-1.66-7.69c0-2.68-3.51-3.44-4.86-1.32Z"/>
            <path class="cls-3"
                  d="M75,172.24A13.72,13.72,0,0,0,83.53,181c4.2,1.36,9.86.69,12.14-3.58,1.19-2.24-.81-5.46-3.49-4.55-2.35.81-4.28,1.76-6.86,1.34s-5.21-1.34-6.68-3.49C77.46,169,74.23,170,75,172.24Z"/>
            <path class="cls-3"
                  d="M94.94,167.19c1.31-.27,2.68-.25,4-.42a7.74,7.74,0,0,1,3.22,0c1,.32,2.39,1.37,4.16.92a4,4,0,0,0,2.79-4.92c-1-3.82-5.64-4.63-8.93-4a13.38,13.38,0,0,0-7.57,4.38,2.41,2.41,0,0,0,2.32,4Z"/>
            <path class="cls-3"
                  d="M80.12,157.57c1.77-.9,4.25-1,6.21-1.16a18.52,18.52,0,0,1,3.37-.14c-.56-.1,1.43.63.76.27-.41-.22-1-.88-.37.05a5.28,5.28,0,0,0,9.61-4.05c-1.34-6-7.91-7.5-13.09-6.21a15.21,15.21,0,0,0-9.82,7.92,2.45,2.45,0,0,0,3.33,3.32Z"/>
            <path class="cls-3"
                  d="M68.92,147.35a17.68,17.68,0,0,1,4.85-2.78s2.71-.75,2.71-.71c0,.63-2.08-.5-2.2-.57a1.5,1.5,0,0,1-.49-.72c.22.56.46,1.11.71,1.65,1,2.2,4.1,2.92,6.15,2a5,5,0,0,0,2.85-5.81c-1.17-6-8.28-7.53-12.59-3.92-2.7,2.25-4.36,5.51-5.6,8.74-.83,2.15,2.15,3.44,3.61,2.1Z"/>
            <path class="cls-3"
                  d="M46.55,144.25c-6.67-1-12.17,5.16-12,11.64a16.2,16.2,0,0,0,1.89,7.88,6.78,6.78,0,0,0,10.52,1.7c3-2.45,1.5-8.4-2.38-9-.71-.12-1.43-.2-2.15-.3l2.83.77c-1-.43.58.81.61.82-.22-.07-.62-1.39-.29-.5-.19-.51-.29-1-.44-1.55-.08-.32-.14-.65-.2-1,.07.58.08.7,0,.33-.07-2,.45-4.91,2.23-6s1.74-4.42-.62-4.77Z"/>
            <path class="cls-3"
                  d="M50.63,142.09c3.25,5.56,7,10.53,12.47,14.11,5.05,3.33,13.11,7.67,19.22,7.54a.5.5,0,0,0,.13-1c-5.86-1.68-12.12-5.13-17.34-8.28-5.49-3.32-9.39-8-12.77-13.4a1,1,0,0,0-1.71,1Z"/>
            <path class="cls-3"
                  d="M32,146.1c0-.4-.06-2.64-.18-1.53a16.4,16.4,0,0,1,.94-3.21c.75-2.35,2-4.71,1-7.21-.71-1.72-2.35-3.72-4.51-3.44-4.33.56-6.53,3.81-8.07,7.62-1.61,4-1.49,8.35,1.45,11.65s10,.88,9.36-3.88Z"/>
            <path class="cls-4"
                  d="M99.84,80.4s9.31-23.29,23.29-17.47S148.75,81.57,110.32,120C53.25,104.86,52.09,88.56,64.9,76.91S99.84,80.4,99.84,80.4Z"/>
            <path class="cls-5"
                  d="M178.69,125.24C169,115,141.92,128,130,127c-25-2-46-7-41-14.5,2.59-3.91,34.51,3.61,43.6-2.85,6.85-4.87,1.68-8.29-32.6-14.06-12.28-2.07-23.83-7.23-34.42-7C44.5,89,55.46,97.33,1,111.36a96.81,96.81,0,0,0,14.82,39.38c5.63-1.84,43.28-13.74,57.47-8.55,13.83,5.06,26.38,9.06,33.72,8.81,9.49-.33,36.19-1.91,41-4C154.09,144.36,183.94,130.79,178.69,125.24Z"/>

</svg>